<?xml version="1.0" encoding="UTF-8"?>
<svg xmlns="http://www.w3.org/2000/svg" viewBox="0 0 32 32" shape-rendering="crispEdges">
<rect x="0" y="0" width="4" height="1" fill="none"/>
<rect x="4" y="0" width="4" height="1" fill="#beb99b"/>
<rect x="8" y="0" width="4" height="1" fill="#c4c0a5"/>
<rect x="12" y="0" width="8" height="1" fill="#ccc9b0"/>
<rect x="20" y="0" width="8" height="1" fill="#bbb696"/>
<rect x="28" y="0" width="4" height="1" fill="none"/>
<rect x="0" y="1" width="4" height="1" fill="none"/>
<rect x="4" y="1" width="4" height="1" fill="#beb99b"/>
<rect x="8" y="1" width="4" height="1" fill="#c4c0a5"/>
<rect x="12" y="1" width="8" height="1" fill="#ccc9b0"/>
<rect x="20" y="1" width="8" height="1" fill="#bbb696"/>
<rect x="28" y="1" width="4" height="1" fill="none"/>
<rect x="0" y="2" width="4" height="1" fill="none"/>
<rect x="4" y="2" width="4" height="1" fill="#beb99b"/>
<rect x="8" y="2" width="4" height="1" fill="#c4c0a5"/>
<rect x="12" y="2" width="8" height="1" fill="#ccc9b0"/>
<rect x="20" y="2" width="8" height="1" fill="#bbb696"/>
<rect x="28" y="2" width="4" height="1" fill="none"/>
<rect x="0" y="3" width="4" height="1" fill="none"/>
<rect x="4" y="3" width="4" height="1" fill="#beb99b"/>
<rect x="8" y="3" width="4" height="1" fill="#c4c0a5"/>
<rect x="12" y="3" width="8" height="1" fill="#ccc9b0"/>
<rect x="20" y="3" width="8" height="1" fill="#bbb696"/>
<rect x="28" y="3" width="4" height="1" fill="none"/>
<rect x="0" y="4" width="8" height="1" fill="#beb99b"/>
<rect x="8" y="4" width="4" height="1" fill="#bbb696"/>
<rect x="12" y="4" width="4" height="1" fill="#beb99b"/>
<rect x="16" y="4" width="8" height="1" fill="#ccc9b0"/>
<rect x="24" y="4" width="4" height="1" fill="#bbb696"/>
<rect x="28" y="4" width="4" height="1" fill="#c4c0a5"/>
<rect x="0" y="5" width="8" height="1" fill="#beb99b"/>
<rect x="8" y="5" width="4" height="1" fill="#bbb696"/>
<rect x="12" y="5" width="4" height="1" fill="#beb99b"/>
<rect x="16" y="5" width="8" height="1" fill="#ccc9b0"/>
<rect x="24" y="5" width="4" height="1" fill="#bbb696"/>
<rect x="28" y="5" width="4" height="1" fill="#c4c0a5"/>
<rect x="0" y="6" width="8" height="1" fill="#beb99b"/>
<rect x="8" y="6" width="4" height="1" fill="#bbb696"/>
<rect x="12" y="6" width="4" height="1" fill="#beb99b"/>
<rect x="16" y="6" width="8" height="1" fill="#ccc9b0"/>
<rect x="24" y="6" width="4" height="1" fill="#bbb696"/>
<rect x="28" y="6" width="4" height="1" fill="#c4c0a5"/>
<rect x="0" y="7" width="8" height="1" fill="#beb99b"/>
<rect x="8" y="7" width="4" height="1" fill="#bbb696"/>
<rect x="12" y="7" width="4" height="1" fill="#beb99b"/>
<rect x="16" y="7" width="8" height="1" fill="#ccc9b0"/>
<rect x="24" y="7" width="4" height="1" fill="#bbb696"/>
<rect x="28" y="7" width="4" height="1" fill="#c4c0a5"/>
<rect x="0" y="8" width="12" height="1" fill="#ccc9b0"/>
<rect x="12" y="8" width="4" height="1" fill="#bbb696"/>
<rect x="16" y="8" width="4" height="1" fill="#beb99b"/>
<rect x="20" y="8" width="8" height="1" fill="#ccc9b0"/>
<rect x="28" y="8" width="4" height="1" fill="#beb99b"/>
<rect x="0" y="9" width="12" height="1" fill="#ccc9b0"/>
<rect x="12" y="9" width="4" height="1" fill="#bbb696"/>
<rect x="16" y="9" width="4" height="1" fill="#beb99b"/>
<rect x="20" y="9" width="8" height="1" fill="#ccc9b0"/>
<rect x="28" y="9" width="4" height="1" fill="#beb99b"/>
<rect x="0" y="10" width="12" height="1" fill="#ccc9b0"/>
<rect x="12" y="10" width="4" height="1" fill="#bbb696"/>
<rect x="16" y="10" width="4" height="1" fill="#beb99b"/>
<rect x="20" y="10" width="8" height="1" fill="#ccc9b0"/>
<rect x="28" y="10" width="4" height="1" fill="#beb99b"/>
<rect x="0" y="11" width="12" height="1" fill="#ccc9b0"/>
<rect x="12" y="11" width="4" height="1" fill="#bbb696"/>
<rect x="16" y="11" width="4" height="1" fill="#beb99b"/>
<rect x="20" y="11" width="8" height="1" fill="#ccc9b0"/>
<rect x="28" y="11" width="4" height="1" fill="#beb99b"/>
<rect x="0" y="12" width="4" height="1" fill="#c4c0a5"/>
<rect x="4" y="12" width="4" height="1" fill="#5c563c"/>
<rect x="8" y="12" width="16" height="1" fill="#ccc9b0"/>
<rect x="24" y="12" width="4" height="1" fill="#5c563c"/>
<rect x="28" y="12" width="4" height="1" fill="#ccc9b0"/>
<rect x="0" y="13" width="4" height="1" fill="#c4c0a5"/>
<rect x="4" y="13" width="4" height="1" fill="#5c563c"/>
<rect x="8" y="13" width="16" height="1" fill="#ccc9b0"/>
<rect x="24" y="13" width="4" height="1" fill="#5c563c"/>
<rect x="28" y="13" width="4" height="1" fill="#ccc9b0"/>
<rect x="0" y="14" width="4" height="1" fill="#c4c0a5"/>
<rect x="4" y="14" width="4" height="1" fill="#5c563c"/>
<rect x="8" y="14" width="16" height="1" fill="#ccc9b0"/>
<rect x="24" y="14" width="4" height="1" fill="#5c563c"/>
<rect x="28" y="14" width="4" height="1" fill="#ccc9b0"/>
<rect x="0" y="15" width="4" height="1" fill="#c4c0a5"/>
<rect x="4" y="15" width="4" height="1" fill="#5c563c"/>
<rect x="8" y="15" width="16" height="1" fill="#ccc9b0"/>
<rect x="24" y="15" width="4" height="1" fill="#5c563c"/>
<rect x="28" y="15" width="4" height="1" fill="#ccc9b0"/>
<rect x="0" y="16" width="4" height="1" fill="#beb99b"/>
<rect x="4" y="16" width="8" height="1" fill="none"/>
<rect x="12" y="16" width="4" height="1" fill="#beb99b"/>
<rect x="16" y="16" width="4" height="1" fill="#ccc9b0"/>
<rect x="20" y="16" width="8" height="1" fill="none"/>
<rect x="28" y="16" width="4" height="1" fill="#c4c0a5"/>
<rect x="0" y="17" width="4" height="1" fill="#beb99b"/>
<rect x="4" y="17" width="8" height="1" fill="none"/>
<rect x="12" y="17" width="4" height="1" fill="#beb99b"/>
<rect x="16" y="17" width="4" height="1" fill="#ccc9b0"/>
<rect x="20" y="17" width="8" height="1" fill="none"/>
<rect x="28" y="17" width="4" height="1" fill="#c4c0a5"/>
<rect x="0" y="18" width="4" height="1" fill="#beb99b"/>
<rect x="4" y="18" width="8" height="1" fill="none"/>
<rect x="12" y="18" width="4" height="1" fill="#beb99b"/>
<rect x="16" y="18" width="4" height="1" fill="#ccc9b0"/>
<rect x="20" y="18" width="8" height="1" fill="none"/>
<rect x="28" y="18" width="4" height="1" fill="#c4c0a5"/>
<rect x="0" y="19" width="4" height="1" fill="#beb99b"/>
<rect x="4" y="19" width="8" height="1" fill="none"/>
<rect x="12" y="19" width="4" height="1" fill="#beb99b"/>
<rect x="16" y="19" width="4" height="1" fill="#ccc9b0"/>
<rect x="20" y="19" width="8" height="1" fill="none"/>
<rect x="28" y="19" width="4" height="1" fill="#c4c0a5"/>
<rect x="0" y="20" width="4" height="1" fill="#bbb696"/>
<rect x="4" y="20" width="8" height="1" fill="#5c563c"/>
<rect x="12" y="20" width="8" height="1" fill="#ccc9b0"/>
<rect x="20" y="20" width="8" height="1" fill="#5c563c"/>
<rect x="28" y="20" width="4" height="1" fill="#bbb696"/>
<rect x="0" y="21" width="4" height="1" fill="#bbb696"/>
<rect x="4" y="21" width="8" height="1" fill="#5c563c"/>
<rect x="12" y="21" width="8" height="1" fill="#ccc9b0"/>
<rect x="20" y="21" width="8" height="1" fill="#5c563c"/>
<rect x="28" y="21" width="4" height="1" fill="#bbb696"/>
<rect x="0" y="22" width="4" height="1" fill="#bbb696"/>
<rect x="4" y="22" width="8" height="1" fill="#5c563c"/>
<rect x="12" y="22" width="8" height="1" fill="#ccc9b0"/>
<rect x="20" y="22" width="8" height="1" fill="#5c563c"/>
<rect x="28" y="22" width="4" height="1" fill="#bbb696"/>
<rect x="0" y="23" width="4" height="1" fill="#bbb696"/>
<rect x="4" y="23" width="8" height="1" fill="#5c563c"/>
<rect x="12" y="23" width="8" height="1" fill="#ccc9b0"/>
<rect x="20" y="23" width="8" height="1" fill="#5c563c"/>
<rect x="28" y="23" width="4" height="1" fill="#bbb696"/>
<rect x="0" y="24" width="4" height="1" fill="none"/>
<rect x="4" y="24" width="4" height="1" fill="#ccc9b0"/>
<rect x="8" y="24" width="4" height="1" fill="#beb99b"/>
<rect x="12" y="24" width="4" height="1" fill="#bbb696"/>
<rect x="16" y="24" width="12" height="1" fill="#ccc9b0"/>
<rect x="28" y="24" width="4" height="1" fill="none"/>
<rect x="0" y="25" width="4" height="1" fill="none"/>
<rect x="4" y="25" width="4" height="1" fill="#ccc9b0"/>
<rect x="8" y="25" width="4" height="1" fill="#beb99b"/>
<rect x="12" y="25" width="4" height="1" fill="#bbb696"/>
<rect x="16" y="25" width="12" height="1" fill="#ccc9b0"/>
<rect x="28" y="25" width="4" height="1" fill="none"/>
<rect x="0" y="26" width="4" height="1" fill="none"/>
<rect x="4" y="26" width="4" height="1" fill="#ccc9b0"/>
<rect x="8" y="26" width="4" height="1" fill="#beb99b"/>
<rect x="12" y="26" width="4" height="1" fill="#bbb696"/>
<rect x="16" y="26" width="12" height="1" fill="#ccc9b0"/>
<rect x="28" y="26" width="4" height="1" fill="none"/>
<rect x="0" y="27" width="4" height="1" fill="none"/>
<rect x="4" y="27" width="4" height="1" fill="#ccc9b0"/>
<rect x="8" y="27" width="4" height="1" fill="#beb99b"/>
<rect x="12" y="27" width="4" height="1" fill="#bbb696"/>
<rect x="16" y="27" width="12" height="1" fill="#ccc9b0"/>
<rect x="28" y="27" width="4" height="1" fill="none"/>
<rect x="0" y="28" width="8" height="1" fill="none"/>
<rect x="8" y="28" width="4" height="1" fill="#ccc9b1"/>
<rect x="12" y="28" width="4" height="1" fill="#c4c0a5"/>
<rect x="16" y="28" width="4" height="1" fill="#5c563c"/>
<rect x="20" y="28" width="4" height="1" fill="#ccc9b0"/>
<rect x="24" y="28" width="8" height="1" fill="none"/>
<rect x="0" y="29" width="8" height="1" fill="none"/>
<rect x="8" y="29" width="4" height="1" fill="#ccc9b1"/>
<rect x="12" y="29" width="4" height="1" fill="#c4c0a5"/>
<rect x="16" y="29" width="4" height="1" fill="#5c563c"/>
<rect x="20" y="29" width="4" height="1" fill="#ccc9b0"/>
<rect x="24" y="29" width="8" height="1" fill="none"/>
<rect x="0" y="30" width="8" height="1" fill="none"/>
<rect x="8" y="30" width="4" height="1" fill="#ccc9b1"/>
<rect x="12" y="30" width="4" height="1" fill="#c4c0a5"/>
<rect x="16" y="30" width="4" height="1" fill="#5c563c"/>
<rect x="20" y="30" width="4" height="1" fill="#ccc9b0"/>
<rect x="24" y="30" width="8" height="1" fill="none"/>
<rect x="0" y="31" width="8" height="1" fill="none"/>
<rect x="8" y="31" width="4" height="1" fill="#ccc9b1"/>
<rect x="12" y="31" width="4" height="1" fill="#c4c0a5"/>
<rect x="16" y="31" width="4" height="1" fill="#5c563c"/>
<rect x="20" y="31" width="4" height="1" fill="#ccc9b0"/>
<rect x="24" y="31" width="8" height="1" fill="none"/>
</svg>