<svg xmlns="http://www.w3.org/2000/svg" viewBox="0 0 1536 1024" width="1536" height="1024">
<g fill="#000" fill-rule="evenodd" stroke="none">
<path d="M 766 784 L 765 855 L 769 856 L 770 786 Z"/>
<path d="M 760 767 L 760 771 L 766 776 L 769 776 L 776 770 L 776 768 L 771 765 L 762 765 Z"/>
<path d="M 766 705 L 757 715 L 757 717 L 766 727 L 769 727 L 778 718 L 778 715 L 769 705 Z"/>
<path d="M 863 696 L 859 696 L 797 745 L 798 781 L 801 780 L 801 748 L 862 700 Z"/>
<path d="M 673 696 L 672 699 L 733 748 L 733 780 L 736 781 L 737 744 L 676 696 Z"/>
<path d="M 633 656 L 632 676 L 621 686 L 621 693 L 632 705 L 632 734 L 636 736 L 637 705 L 648 695 L 649 687 L 641 678 L 637 676 L 637 657 Z M 634 681 L 636 681 L 644 690 L 636 699 L 634 699 L 626 691 L 628 686 Z"/>
<path d="M 901 655 L 897 657 L 897 676 L 889 682 L 885 689 L 886 694 L 897 704 L 898 736 L 902 735 L 902 705 L 914 692 L 914 688 L 911 683 L 902 675 Z M 899 681 L 902 682 L 909 690 L 901 699 L 896 697 L 891 692 L 892 687 Z"/>
<path d="M 972 648 L 965 654 L 964 662 L 969 669 L 978 671 L 986 665 L 987 656 L 985 652 L 981 649 Z"/>
<path d="M 556 648 L 549 653 L 548 664 L 554 670 L 561 671 L 569 666 L 570 655 L 566 650 L 562 648 Z"/>
<path d="M 557 567 L 557 632 L 561 632 L 561 567 Z"/>
<path d="M 974 566 L 973 632 L 977 632 L 978 568 Z"/>
<path d="M 1026 523 L 1025 571 L 1011 587 L 1010 593 L 1025 610 L 1029 610 L 1043 594 L 1044 589 L 1029 571 L 1029 524 Z M 1026 578 L 1039 590 L 1027 604 L 1015 590 Z"/>
<path d="M 1005 523 L 1001 523 L 916 584 L 913 587 L 913 589 L 916 590 L 1003 528 L 1005 526 Z"/>
<path d="M 530 523 L 530 526 L 611 586 L 616 589 L 619 589 L 618 584 L 590 565 L 534 523 Z"/>
<path d="M 507 523 L 505 525 L 505 572 L 491 588 L 491 593 L 506 610 L 510 610 L 524 594 L 525 589 L 510 572 L 510 524 Z M 507 578 L 519 590 L 508 604 L 496 591 Z"/>
<path d="M 473 474 L 469 474 L 469 476 L 478 485 L 468 492 L 469 496 L 471 496 L 484 486 L 484 483 Z"/>
<path d="M 444 472 L 430 483 L 430 486 L 444 497 L 447 497 L 448 494 L 436 484 L 448 475 L 447 472 Z"/>
<path d="M 465 467 L 461 468 L 452 495 L 452 500 L 456 499 L 465 473 Z"/>
<path d="M 1072 449 L 1068 453 L 1066 469 L 1060 474 L 1060 476 L 1066 483 L 1068 498 L 1072 502 L 1093 502 L 1097 499 L 1099 482 L 1104 477 L 1104 474 L 1098 468 L 1097 454 L 1093 449 Z M 1074 453 L 1090 453 L 1093 457 L 1094 469 L 1099 476 L 1094 483 L 1093 496 L 1091 498 L 1075 498 L 1072 496 L 1071 484 L 1066 475 L 1071 468 L 1072 456 Z"/>
<path d="M 1028 409 L 1027 431 L 1031 432 L 1031 410 Z"/>
<path d="M 505 409 L 503 411 L 504 432 L 507 432 L 508 411 L 507 409 Z"/>
<path d="M 1038 309 L 1037 355 L 1040 355 L 1041 310 Z"/>
<path d="M 494 309 L 493 354 L 497 355 L 498 310 Z"/>
<path d="M 1015 274 L 1011 274 L 1010 349 L 991 350 L 991 355 L 1015 354 Z"/>
<path d="M 521 273 L 519 275 L 519 353 L 521 355 L 543 355 L 543 350 L 524 349 L 524 274 Z"/>
<path d="M 559 237 L 558 356 L 575 380 L 490 381 L 465 365 L 453 389 L 473 401 L 490 386 L 514 386 L 517 405 L 519 386 L 581 388 L 587 397 L 546 434 L 527 429 L 540 438 L 530 447 L 500 449 L 524 452 L 498 477 L 661 588 L 633 580 L 651 594 L 652 628 L 656 597 L 686 621 L 685 675 L 599 606 L 598 586 L 594 608 L 719 709 L 725 649 L 765 680 L 735 718 L 769 751 L 799 719 L 770 679 L 809 649 L 814 710 L 940 609 L 937 586 L 935 607 L 850 675 L 848 621 L 878 597 L 883 627 L 884 593 L 901 580 L 870 589 L 1037 477 L 1010 451 L 1034 449 L 996 440 L 1008 428 L 988 433 L 948 397 L 954 388 L 1015 386 L 1019 406 L 1020 386 L 1066 401 L 1081 375 L 1062 364 L 1045 381 L 959 380 L 977 355 L 976 237 L 829 316 L 770 316 L 783 295 L 769 281 L 752 294 L 765 316 L 705 316 Z M 768 692 L 793 717 L 767 744 L 742 717 Z M 821 612 L 823 614 L 823 638 L 826 638 L 842 625 L 844 626 L 844 679 L 816 701 L 816 615 L 819 612 Z M 713 612 L 715 612 L 718 615 L 718 701 L 690 678 L 691 626 L 693 625 L 708 638 L 711 638 L 711 615 Z M 747 557 L 750 554 L 785 554 L 788 558 L 748 559 Z M 662 516 L 667 513 L 673 517 L 673 521 L 671 523 L 668 523 L 662 519 Z M 881 503 L 885 508 L 881 513 L 877 514 L 874 511 L 874 508 L 878 503 Z M 912 504 L 919 498 L 925 498 L 929 501 L 931 508 L 963 517 L 964 519 L 955 520 L 933 515 L 919 517 L 913 512 Z M 622 503 L 622 509 L 620 513 L 614 517 L 601 515 L 573 521 L 571 519 L 575 516 L 602 509 L 604 503 L 609 498 L 617 498 Z M 636 494 L 638 500 L 628 505 L 624 500 Z M 889 489 L 894 494 L 890 501 L 886 501 L 884 499 L 884 494 Z M 895 474 L 897 474 L 900 477 L 900 481 L 896 486 L 891 484 L 891 478 Z M 637 474 L 639 474 L 644 479 L 644 483 L 641 486 L 638 486 L 635 483 L 634 478 Z M 835 463 L 845 462 L 850 464 L 854 468 L 857 475 L 857 480 L 850 490 L 845 492 L 838 492 L 832 489 L 826 480 L 826 475 L 829 468 Z M 689 462 L 699 463 L 706 469 L 708 473 L 707 484 L 701 490 L 696 492 L 690 492 L 685 490 L 678 481 L 678 473 L 680 469 Z M 902 458 L 910 457 L 1024 475 L 994 494 L 991 494 L 914 464 Z M 634 457 L 633 459 L 543 494 L 537 492 L 511 475 L 633 456 Z M 796 472 L 809 416 L 814 434 L 819 434 L 888 389 L 924 407 L 910 421 L 930 409 L 967 428 L 990 446 L 887 429 L 882 425 L 878 427 L 879 432 L 999 453 L 1019 468 L 1000 467 L 839 441 Z M 739 472 L 696 441 L 536 467 L 517 468 L 536 453 L 655 432 L 656 427 L 652 425 L 647 429 L 550 447 L 545 446 L 574 424 L 607 408 L 620 419 L 626 421 L 626 418 L 612 406 L 647 389 L 717 435 L 721 434 L 726 417 Z M 641 386 L 585 415 L 583 414 L 599 401 L 631 379 L 636 381 Z M 893 386 L 903 378 L 933 399 L 950 413 L 948 414 Z M 1062 370 L 1070 372 L 1075 377 L 1077 382 L 1073 391 L 1066 395 L 1058 394 L 1052 388 L 1051 385 L 1052 377 L 1057 372 Z M 470 370 L 477 372 L 483 380 L 482 388 L 479 392 L 474 395 L 465 394 L 458 386 L 459 377 L 464 372 Z M 768 361 L 785 380 L 787 384 L 767 406 L 747 383 Z M 832 334 L 833 333 L 897 374 L 898 376 L 888 384 L 833 359 L 831 355 Z M 703 333 L 702 359 L 684 366 L 647 384 L 637 376 L 638 374 L 702 332 Z M 964 328 L 965 352 L 946 377 L 921 377 L 921 374 L 953 347 L 953 330 L 957 328 Z M 570 328 L 579 328 L 582 330 L 582 348 L 614 376 L 613 377 L 589 378 L 569 352 Z M 812 327 L 826 328 L 827 360 L 823 364 L 823 368 L 827 370 L 828 391 L 830 391 L 831 389 L 832 364 L 835 364 L 871 380 L 883 387 L 819 429 L 817 428 L 811 403 Z M 710 327 L 724 328 L 723 406 L 717 429 L 704 422 L 651 387 L 655 384 L 702 363 L 704 369 L 704 389 L 705 392 L 707 392 L 708 370 L 712 367 L 712 364 L 709 360 Z M 805 326 L 806 408 L 782 510 L 793 489 L 844 556 L 905 525 L 921 531 L 797 613 L 770 611 L 770 594 L 798 563 L 797 551 L 787 545 L 745 545 L 737 552 L 736 562 L 764 593 L 764 611 L 738 613 L 614 531 L 630 526 L 691 556 L 741 489 L 752 509 L 728 405 L 729 327 L 765 328 L 765 352 L 739 385 L 765 415 L 765 516 L 769 516 L 770 414 L 796 385 L 770 353 L 770 328 Z M 765 287 L 772 288 L 777 294 L 777 300 L 771 306 L 765 306 L 761 304 L 758 300 L 759 292 Z M 936 270 L 863 341 L 853 334 L 874 315 L 894 294 L 904 289 L 934 269 Z M 598 270 L 600 269 L 640 294 L 682 334 L 671 341 Z M 965 254 L 965 323 L 953 323 L 953 284 L 950 283 L 899 332 L 899 334 L 915 335 L 891 358 L 884 355 L 868 344 L 962 254 Z M 569 254 L 571 253 L 582 262 L 632 309 L 666 344 L 644 359 L 618 335 L 635 334 L 635 331 L 585 283 L 582 284 L 582 322 L 570 323 Z"/>
<path d="M 910 227 L 910 230 L 925 244 L 928 244 L 928 241 L 914 227 Z"/>
<path d="M 814 183 L 816 187 L 836 190 L 836 187 L 832 185 L 820 182 Z"/>
<path d="M 720 183 L 715 182 L 702 185 L 698 187 L 698 190 L 718 187 Z"/>
<path d="M 664 276 L 664 279 L 667 280 L 707 258 L 750 246 L 763 245 L 765 247 L 765 261 L 768 262 L 770 260 L 770 246 L 772 245 L 795 248 L 817 254 L 850 269 L 867 280 L 870 279 L 870 276 L 859 268 L 830 253 L 802 244 L 770 239 L 770 213 L 784 209 L 795 199 L 801 181 L 798 166 L 793 158 L 785 151 L 771 146 L 759 147 L 748 152 L 740 160 L 734 173 L 734 187 L 741 201 L 751 209 L 765 214 L 765 239 L 733 244 L 707 252 L 684 263 Z M 758 154 L 776 154 L 782 157 L 790 165 L 793 171 L 794 185 L 792 191 L 788 197 L 779 204 L 772 206 L 770 205 L 769 173 L 765 174 L 764 206 L 752 202 L 744 194 L 741 188 L 741 171 L 745 164 L 751 158 Z"/>
</g></svg>